<?xml version="1.0" encoding="utf-8"?>
<!-- Generator: Adobe Illustrator 26.2.0, SVG Export Plug-In . SVG Version: 6.00 Build 0)  -->
<svg version="1.1" id="레이어_1" xmlns="http://www.w3.org/2000/svg" xmlns:xlink="http://www.w3.org/1999/xlink" x="0px"
	 y="0px" viewBox="0 0 65 66" style="enable-background:new 0 0 65 66;" xml:space="preserve">
<style type="text/css">
	.st0{fill-rule:evenodd;clip-rule:evenodd;fill:#FFFFFF;}
</style>
<path class="st0" d="M1.1,12.5c0-3.7,0-7.4,0-11.3c38.8,1.1,61.1,25.3,63.4,61.4c-3.4,0-7.4,0.1-10.8,0.1
	C52.2,33.3,31.8,12.5,1.1,12.5L1.1,12.5z M30.6,62.8c4.2-0.1,7.4-0.1,11.3-0.1C39.2,37.3,25.9,25,1.1,24.2c0,3.8,0,7.1,0,10.7
	C20.8,35.5,29.5,46,30.6,62.8L30.6,62.8z M8.4,48.4c4.7,0,8.5,3.7,8.5,8.3c0,4.6-3.7,8.4-8.4,8.4c-4.7,0-8.5-3.7-8.5-8.3
	C0,52.2,3.8,48.4,8.4,48.4L8.4,48.4z"/>
</svg>
