<?xml version="1.0" standalone="no"?>
<!DOCTYPE svg PUBLIC "-//W3C//DTD SVG 20010904//EN"
 "http://www.w3.org/TR/2001/REC-SVG-20010904/DTD/svg10.dtd">
<svg version="1.0" xmlns="http://www.w3.org/2000/svg"
 width="1395.000000pt" height="1395.000000pt" viewBox="0 0 1395.000000 1395.000000"
 preserveAspectRatio="xMidYMid meet">
<metadata>
Created by potrace 1.14, written by Peter Selinger 2001-2017
</metadata>
<g transform="translate(0.000000,1395.000000) scale(0.100000,-0.100000)"
fill="#000000" stroke="none">
<path d="M5070 12149 c-890 -71 -1733 -364 -2476 -859 -219 -146 -545 -406
-630 -503 -52 -59 -84 -125 -84 -175 0 -52 48 -107 101 -117 77 -14 139 20
342 191 414 348 899 625 1397 798 830 289 1706 330 2555 121 1181 -291 2197
-1058 2809 -2119 359 -623 572 -1376 588 -2086 l3 -114 -115 -44 c-252 -97
-1408 -559 -1780 -712 -217 -89 -443 -182 -503 -206 -61 -25 -123 -44 -145
-44 -69 0 -133 60 -187 175 -13 28 -54 151 -90 275 -259 875 -631 1922 -918
2580 -172 396 -485 990 -646 1228 -271 402 -543 630 -837 698 -98 22 -244 20
-330 -7 -130 -39 -282 -132 -391 -238 -142 -138 -340 -438 -511 -773 -226
-442 -360 -793 -562 -1473 -112 -378 -111 -374 -138 -399 -21 -18 -21 -18 -45
8 -30 32 -68 158 -106 347 -124 613 -356 1130 -633 1408 -204 206 -334 132
-645 -365 -356 -568 -600 -1203 -712 -1849 -60 -348 -80 -616 -75 -973 3 -234
6 -283 30 -502 85 -782 362 -1557 792 -2220 829 -1279 2172 -2127 3672 -2319
249 -32 414 -42 698 -40 387 3 653 30 1017 104 637 130 1267 393 1814 759 289
194 513 378 767 631 298 296 476 513 686 835 250 382 436 763 579 1189 26 80
54 148 61 152 11 5 252 32 593 64 121 12 428 36 630 50 402 27 502 34 640 40
61 3 135 8 165 10 30 3 127 7 215 11 88 3 180 7 205 9 25 2 144 7 265 10 260
7 364 18 453 47 76 25 128 71 137 122 16 81 16 81 -743 837 -1146 1141 -1117
1114 -1248 1158 -186 62 -352 32 -918 -163 -121 -42 -221 -74 -223 -72 -2 2
-10 48 -18 102 -123 820 -416 1560 -883 2227 -86 123 -277 366 -367 467 -76
84 -381 388 -459 455 -684 595 -1503 1000 -2374 1175 -154 31 -386 66 -497 76
-33 3 -100 9 -150 13 -115 11 -637 11 -775 0z m-3665 -3479 c41 -13 78 -53
103 -110 34 -77 38 -91 75 -250 16 -67 62 -354 71 -447 4 -29 8 -77 11 -105 3
-29 8 -69 11 -88 5 -38 10 -88 19 -196 3 -40 7 -87 9 -105 3 -19 7 -70 11
-114 3 -44 8 -102 10 -130 5 -53 11 -128 20 -260 3 -44 8 -114 11 -155 3 -41
7 -97 9 -125 15 -253 31 -427 50 -555 27 -179 39 -220 87 -312 63 -120 151
-177 279 -183 190 -8 341 76 467 258 74 107 100 165 297 667 144 366 357 831
484 1055 158 279 278 423 365 439 135 25 303 -302 469 -914 42 -155 94 -364
104 -420 2 -14 8 -41 13 -60 5 -19 11 -47 14 -62 2 -15 12 -63 20 -105 19 -90
19 -91 40 -203 17 -93 20 -112 36 -215 11 -70 16 -101 25 -152 9 -55 24 -170
35 -262 6 -51 12 -107 15 -124 5 -42 16 -158 21 -227 2 -30 6 -77 8 -105 3
-27 8 -81 11 -120 3 -38 8 -86 10 -105 3 -19 7 -62 10 -95 4 -33 10 -85 15
-115 6 -30 12 -73 16 -95 14 -91 46 -195 86 -275 77 -158 231 -277 569 -439
181 -87 271 -123 390 -155 103 -28 268 -45 339 -35 25 4 63 9 85 12 65 9 174
46 265 89 76 37 263 148 330 198 14 10 148 109 299 220 397 293 638 453 894
594 78 43 384 196 392 196 3 0 28 11 57 25 28 14 56 25 60 25 5 0 29 9 54 20
109 50 384 146 577 201 78 22 147 42 154 44 15 5 -13 -56 -77 -169 -9 -17 -32
-58 -50 -91 -48 -87 -269 -417 -337 -504 -364 -463 -779 -830 -1271 -1123
-204 -121 -504 -264 -722 -343 -41 -15 -92 -33 -113 -41 -124 -47 -523 -148
-662 -168 -39 -6 -67 -11 -130 -21 -16 -3 -52 -7 -80 -11 -27 -3 -63 -7 -80
-9 -105 -14 -253 -20 -480 -20 -271 0 -426 8 -585 32 -25 3 -57 7 -71 9 -141
14 -546 109 -744 176 -262 88 -615 243 -790 348 -27 16 -61 35 -75 42 -14 7
-90 55 -170 107 -440 286 -806 625 -1119 1036 -50 66 -95 125 -99 130 -26 32
-122 181 -183 282 -266 440 -476 988 -559 1458 -5 28 -11 61 -14 75 -8 45 -27
179 -41 290 -16 128 -19 218 -20 475 0 320 4 371 40 535 9 41 21 93 25 116 31
148 145 425 221 537 114 168 274 263 384 227z"/>
</g>
</svg>
