<?xml version="1.0" encoding="utf-8"?>
<!-- Generator: Adobe Illustrator 26.2.0, SVG Export Plug-In . SVG Version: 6.00 Build 0)  -->
<svg version="1.1" id="레이어_1" xmlns="http://www.w3.org/2000/svg" xmlns:xlink="http://www.w3.org/1999/xlink" x="0px"
	 y="0px" viewBox="0 0 554 426" style="enable-background:new 0 0 554 426;" xml:space="preserve">
<style type="text/css">
	.st0{fill-rule:evenodd;clip-rule:evenodd;fill:#FFFFFF;}
</style>
<path class="st0" d="M198.7,2.2c-43.2,3.2-83.4,19.1-117.3,46.4c-10.7,8.6-14.3,12.7-14.3,16.6c0,1.9,1.6,3.9,3.6,4.7
	c2.5,0.9,5.2-0.1,9.3-3.4c1.8-1.5,5.6-4.5,8.4-6.8c10.6-8.6,20.9-15.2,33.8-21.5c20.3-10,39.7-15.6,62.9-18.1
	c7.8-0.8,26.5-0.9,34.2-0.2c52.6,5.1,98.7,30.7,130.4,72.4c11.5,15.2,21.6,34.4,27.8,53.2c3.5,10.6,6.3,23.4,7.8,35.5
	c0.8,6.6,1.6,20.1,1.1,20.5c-0.2,0.2-7.3,3-15.7,6.3c-16.8,6.6-45.2,18-65.8,26.4c-7.2,3-14.9,6.1-17.1,7c-2.2,0.9-4.6,1.6-5.5,1.6
	c-4.3,0-7.5-4.6-10.5-14.8c-6.4-22.5-14.8-47.5-24.9-74.6c-9.6-25.7-14.8-37.9-23.5-55.3c-16.2-32.3-28.7-48.5-43.2-55.5
	c-4.9-2.4-7.7-3.1-13.4-3.4c-5.3-0.2-7.4,0.2-12.5,2.5C145,46.1,137,55,127.2,72c-10.9,18.9-18.9,38.7-28.1,70
	c-2.3,7.7-4.5,14.6-4.8,15.2c-2.3,3.9-4.1,0.2-7.1-13.8c-4.1-19.8-10.4-36-18.7-48.4c-3.5-5.2-8.5-10.8-11.2-12.3
	c-3.7-2.2-7.4-1.1-11.8,3.4c-2.9,3-10.9,14.9-15.5,23C-1.7,165.1-6.1,231.7,17.7,292c3.2,8.1,10.2,22.3,14.8,29.9
	c32.3,53.6,86.2,90.3,147.4,100.2c13.1,2.1,18,2.5,34.4,2.5c16.4,0,20.8-0.3,34-2.5c37.9-6.1,73.7-22.7,103.3-48
	c6.4-5.4,18.9-18.1,24.1-24.3c17.8-21.4,30.9-44.7,39.2-69.9c1-2.9,2-5.5,2.3-5.6c0.6-0.4,21-2.4,36-3.6c20.3-1.6,48.5-3.3,69.1-4.1
	c16.2-0.6,19-0.8,22.1-1.4c3.3-0.7,6.6-2.4,7.5-3.9c1.1-1.6,0.9-4.1-0.4-6.3c-1.1-1.8-62.7-63.4-71.2-71.1
	c-5.2-4.7-8.4-6.4-13.4-7.1c-6.5-0.9-14,0.9-33.7,7.7c-9.3,3.2-9.5,3.2-9.5,0.9c0-1.6-1.8-12.3-3.1-17.8
	c-7.1-31.6-21.5-61.8-41.6-86.6c-11.6-14.3-23.6-25.9-37.9-36.7c-33.1-24.8-71-39-112.7-42C221.8,1.7,205.5,1.7,198.7,2.2z
	 M48.3,145c2.2,1.1,3.6,3.3,4.9,7.3c3.7,11.5,6.3,33.2,9.3,77c1.9,27.6,3.2,34.3,7.8,39.7c2,2.3,4.5,3.7,7.6,4.2
	c5.8,0.9,12.3-1.4,16.9-5.9c4.6-4.5,6.8-8.5,12.1-22.2c19-48.2,32.6-72.3,40-70.9c7,1.3,16.1,25,23.5,60.7c3.9,18.9,5.9,33.2,8,55.7
	c0.8,8.6,1.7,17.3,2,19.5c2.2,13.8,5.6,19.3,15.6,25.7c4,2.5,15.2,8.1,20.6,10.2c10.6,4.3,20.4,4.9,29.5,2
	c7.6-2.5,15.1-7.1,33.2-20.6c16.2-12.1,24.3-17.4,36.9-24.2c13.1-7.1,30.9-14.3,45.8-18.5c2.5-0.7,4.8-1.4,5.2-1.5
	c1.6-0.5-7.1,14.9-13.7,24.4c-32.1,45.6-81.6,73.7-137.2,77.9c-7.9,0.6-25.6,0.2-33.2-0.6c-40-4.7-75.1-20.8-104.8-48.1
	C65.6,325,52.7,308.6,43.7,293c-13.3-23.2-21.1-49-23.4-77.5c-0.7-7.8-0.2-26.2,0.7-31.2c2.3-12.3,6.8-24.6,11.5-31.2
	C37.2,146.6,44.3,142.9,48.3,145z"/>
</svg>
