<?xml version="1.0" encoding="utf-8"?>
<!-- Generator: Adobe Illustrator 26.2.0, SVG Export Plug-In . SVG Version: 6.00 Build 0)  -->
<svg version="1.1" id="레이어_1" xmlns="http://www.w3.org/2000/svg" xmlns:xlink="http://www.w3.org/1999/xlink" x="0px"
	 y="0px" viewBox="0 0 102 58" style="enable-background:new 0 0 102 58;" xml:space="preserve">
<style type="text/css">
	.st0{fill-rule:evenodd;clip-rule:evenodd;fill:#FFFFFF;}
</style>
<g>
	<path class="st0" d="M47.1,0.5c0,0.1,1.7,5.4,1.8,5.7c0,0.2,0,0.2,0.4,0.2h0.3l0.1-0.2c0-0.1,0.3-1,0.5-2c0.2-1,0.5-1.8,0.5-1.8
		s0.2,0.9,0.5,2l0.5,2l0.3,0l0.3,0l0.9-2.9c0.5-1.6,0.9-2.9,0.9-3c0,0-0.2,0-0.4,0h-0.4l-0.6,2c-0.3,1.1-0.6,2-0.6,2
		s-0.2-0.8-0.5-1.9c-0.3-1-0.5-1.9-0.5-2l0-0.2l-0.4,0l-0.4,0l-0.5,2.1c-0.3,1.1-0.5,2-0.5,2c0,0-0.3-1-0.6-2.1l-0.6-2l-0.4,0
		C47.1,0.4,47,0.4,47.1,0.5z"/>
	<polygon class="st0" points="54.2,1 54.2,1.4 54.5,1.4 54.8,1.4 54.8,1 54.8,0.5 54.5,0.5 54.2,0.5 	"/>
	<polygon class="st0" points="62.4,3.3 62.4,6.2 62.7,6.2 63,6.2 63,3.3 63,0.5 62.7,0.5 62.4,0.5 	"/>
	<path class="st0" d="M59,1.8C58.4,2,57.8,2.4,57.6,3c-0.3,0.6-0.3,1.5,0,2c0.2,0.4,0.7,0.9,1.2,1.1c0.4,0.2,1.2,0.2,1.7,0
		c0.4-0.1,1-0.7,1.1-1.1l0.1-0.2l-0.3,0c-0.3,0-0.3,0-0.4,0.1c-0.2,0.3-0.4,0.5-0.7,0.6c-0.2,0.1-0.3,0.1-0.7,0.1s-0.5,0-0.7-0.1
		c-0.5-0.2-0.7-0.6-0.9-1.2l0-0.2h1.9h1.9V3.9c0-0.9-0.6-1.7-1.3-2C60.1,1.8,59.4,1.7,59,1.8z M60,2.4C60.5,2.5,61,3,61.1,3.5l0,0.2
		h-1.6c-1.8,0-1.7,0-1.4-0.5c0.2-0.4,0.5-0.7,0.9-0.8C59.3,2.3,59.8,2.3,60,2.4z"/>
	<path class="st0" d="M65.3,1.8c-0.4,0.1-0.8,0.3-1.1,0.6c-1.2,1.3-0.5,3.5,1.2,3.8c0.9,0.2,1.9-0.3,2.3-1.1l0.2-0.3h-0.3
		c-0.3,0-0.4,0-0.4,0.1c-0.4,0.6-1.1,0.9-1.8,0.7c-0.5-0.2-1-0.7-1.1-1.2l0-0.2h1.9H68V3.9c0-0.3-0.1-0.8-0.3-1.2
		c-0.2-0.3-0.6-0.7-1-0.8C66.3,1.8,65.6,1.7,65.3,1.8z M66.3,2.4c0.5,0.1,0.9,0.6,1.1,1.1l0,0.2h-1.6c-1.7,0-1.6,0-1.5-0.3
		c0.1-0.4,0.5-0.8,0.9-0.9C65.5,2.3,66,2.3,66.3,2.4z"/>
	<path class="st0" d="M69.5,1.8c-0.6,0.2-1.1,0.9-0.9,1.5c0.1,0.5,0.2,0.5,1.4,1c0.4,0.2,0.5,0.3,0.5,0.6c0,0.4-0.3,0.7-0.7,0.7
		c-0.3,0-0.6-0.3-0.7-0.8c0-0.1,0-0.1-0.3-0.1h-0.3l0,0.3c0.1,0.5,0.4,1,0.8,1.1c0.2,0.1,0.9,0.1,1.1,0C70.8,6,71.1,5.5,71.1,5
		c0-0.7-0.3-1.1-1.1-1.3c-0.6-0.2-0.8-0.4-0.8-0.7c0-0.5,0.6-0.8,1-0.4c0.1,0.1,0.2,0.2,0.2,0.3c0,0.2,0,0.2,0.4,0.2H71l0-0.2
		c0-0.2-0.2-0.5-0.3-0.6C70.5,1.9,69.9,1.7,69.5,1.8z"/>
	<path class="st0" d="M72.6,1.8c-0.4,0.1-0.7,0.3-0.9,0.7c-0.1,0.2-0.1,0.8,0,1.1c0.1,0.3,0.3,0.4,0.9,0.6c0.7,0.3,0.9,0.4,0.9,0.9
		c0,0.5-0.6,0.8-1.1,0.5c-0.2-0.1-0.3-0.4-0.3-0.6c0-0.1,0-0.1-0.3-0.1h-0.3l0,0.2c0.1,0.6,0.3,0.9,0.7,1.2c0.3,0.2,0.9,0.2,1.3,0
		c0.5-0.2,0.6-0.5,0.7-1c0-0.2,0-0.5,0-0.6c-0.1-0.3-0.5-0.6-0.9-0.8c-0.7-0.2-0.9-0.4-0.9-0.8c0-0.4,0.4-0.7,0.8-0.6
		c0.2,0.1,0.4,0.3,0.4,0.5C73.4,3,73.5,3,73.8,3c0.3,0,0.3,0,0.3-0.1C74.1,2.1,73.3,1.6,72.6,1.8z"/>
	<path class="st0" d="M56.8,1.9c-0.1,0-0.3,0.2-0.4,0.2l-0.2,0.2V2.1V1.9h-0.3h-0.3V4v2.1h0.3h0.3V4.8c0-1.4,0-1.7,0.2-1.9
		c0.1-0.2,0.4-0.3,0.6-0.4c0.1,0,0.1,0,0.1-0.3C57.2,1.8,57.2,1.8,56.8,1.9z"/>
	<polygon class="st0" points="54.2,4 54.2,6.2 54.5,6.2 54.8,6.2 54.8,4 54.8,1.9 54.5,1.9 54.2,1.9 	"/>
	<path class="st0" d="M26.2,2.2c-5.7,0.4-10.9,2.5-15.4,6.1C9.4,9.4,8.9,10,8.9,10.5c0,0.2,0.2,0.5,0.5,0.6c0.3,0.1,0.7,0,1.2-0.5
		c0.2-0.2,0.7-0.6,1.1-0.9c1.4-1.1,2.7-2,4.4-2.8c2.7-1.3,5.2-2,8.2-2.4c1-0.1,3.5-0.1,4.5,0c6.9,0.7,12.9,4,17.1,9.5
		c1.5,2,2.8,4.5,3.6,7c0.5,1.4,0.8,3.1,1,4.6c0.1,0.9,0.2,2.6,0.2,2.7c0,0-0.9,0.4-2.1,0.8c-2.2,0.9-5.9,2.4-8.6,3.5
		c-0.9,0.4-1.9,0.8-2.2,0.9c-0.3,0.1-0.6,0.2-0.7,0.2c-0.6,0-1-0.6-1.4-1.9c-0.8-2.9-1.9-6.2-3.3-9.8c-1.3-3.4-1.9-5-3.1-7.2
		c-2.1-4.2-3.8-6.3-5.7-7.3c-0.6-0.3-1-0.4-1.8-0.4c-0.7,0-1,0-1.6,0.3c-1.3,0.6-2.3,1.7-3.6,4c-1.4,2.5-2.5,5.1-3.7,9.2
		c-0.3,1-0.6,1.9-0.6,2c-0.3,0.5-0.5,0-0.9-1.8c-0.5-2.6-1.4-4.7-2.4-6.3C8.7,13.7,8,13,7.7,12.8c-0.5-0.3-1-0.2-1.6,0.4
		c-0.4,0.4-1.4,1.9-2,3c-4.1,7.3-4.7,16.1-1.6,24c0.4,1.1,1.3,2.9,1.9,3.9c4.2,7,11.3,11.8,19.3,13.1c1.7,0.3,2.4,0.3,4.5,0.3
		c2.1,0,2.7,0,4.5-0.3c5-0.8,9.6-3,13.5-6.3c0.8-0.7,2.5-2.4,3.2-3.2c2.3-2.8,4-5.8,5.1-9.2c0.1-0.4,0.3-0.7,0.3-0.7
		c0.1,0,2.8-0.3,4.7-0.5c2.7-0.2,6.3-0.4,9-0.5c2.1-0.1,2.5-0.1,2.9-0.2c0.4-0.1,0.9-0.3,1-0.5c0.1-0.2,0.1-0.5,0-0.8
		C72.2,35.1,64.1,27,63,26c-0.7-0.6-1.1-0.8-1.8-0.9c-0.9-0.1-1.8,0.1-4.4,1c-1.2,0.4-1.2,0.4-1.2,0.1c0-0.2-0.2-1.6-0.4-2.3
		c-0.9-4.1-2.8-8.1-5.4-11.3c-1.5-1.9-3.1-3.4-5-4.8c-4.3-3.3-9.3-5.1-14.8-5.5C29.2,2.2,27.1,2.2,26.2,2.2z M6.5,20.9
		c0.3,0.2,0.5,0.4,0.6,1c0.5,1.5,0.8,4.3,1.2,10.1c0.2,3.6,0.4,4.5,1,5.2c0.3,0.3,0.6,0.5,1,0.6c0.8,0.1,1.6-0.2,2.2-0.8
		c0.6-0.6,0.9-1.1,1.6-2.9c2.5-6.3,4.3-9.5,5.2-9.3c0.9,0.2,2.1,3.3,3.1,7.9c0.5,2.5,0.8,4.3,1.1,7.3c0.1,1.1,0.2,2.3,0.3,2.5
		c0.3,1.8,0.7,2.5,2,3.4c0.5,0.3,2,1.1,2.7,1.3c1.4,0.6,2.7,0.6,3.9,0.3c1-0.3,2-0.9,4.3-2.7c2.1-1.6,3.2-2.3,4.8-3.2
		c1.7-0.9,4.1-1.9,6-2.4c0.3-0.1,0.6-0.2,0.7-0.2c0.2-0.1-0.9,2-1.8,3.2c-4.2,6-10.7,9.6-18,10.2c-1,0.1-3.3,0-4.3-0.1
		c-5.2-0.6-9.8-2.7-13.7-6.3c-1.7-1.5-3.4-3.7-4.5-5.7c-1.7-3-2.8-6.4-3.1-10.1c-0.1-1,0-3.4,0.1-4.1c0.3-1.6,0.9-3.2,1.5-4.1
		C5,21.2,5.9,20.7,6.5,20.9z"/>
	<polygon class="st0" points="57.3,10.9 57.3,13.9 58.9,13.9 60.6,13.9 60.6,13.5 60.6,13.1 59.4,13.1 58.2,13.1 58.2,12.2 
		58.2,11.3 59.4,11.3 60.6,11.3 60.6,10.9 60.6,10.4 59.4,10.4 58.2,10.4 58.2,9.6 58.2,8.7 59.4,8.7 60.6,8.7 60.6,8.3 60.6,7.9 
		58.9,7.9 57.3,7.9 	"/>
	<polygon class="st0" points="80.9,8.5 80.9,8.9 81.2,8.9 81.4,8.9 81.4,8.5 81.4,8 81.2,8 80.9,8 	"/>
	<path class="st0" d="M70.5,9.3c-1.2,0.2-1.9,1.2-1.8,2.5c0.1,1,0.9,1.9,1.9,2.1c1,0.2,1.9-0.3,2.3-1.2c0.1-0.2,0.1-0.3,0.1-0.3
		s-0.2,0-0.3,0c-0.3,0-0.3,0-0.4,0.1c-0.1,0.2-0.4,0.5-0.7,0.7c-0.4,0.2-1,0.2-1.4,0c-0.4-0.2-0.6-0.5-0.8-0.9
		c-0.2-0.5-0.4-0.5,1.9-0.5h2l0-0.3C73.1,10,72,9.1,70.5,9.3z M71.7,10.1c0.4,0.2,0.7,0.6,0.8,1.1l0,0.2h-1.6h-1.6l0.1-0.3
		C69.7,10.1,70.8,9.6,71.7,10.1z"/>
	<path class="st0" d="M62.8,9.4c-0.3,0.1-0.5,0.2-0.7,0.3L62,9.8V9.6V9.4h-0.3h-0.3v2.2v2.2h0.3H62l0-1.5l0-1.5l0.2-0.3
		c0.4-0.6,1.4-0.8,1.9-0.3c0.3,0.3,0.3,0.5,0.4,2.1l0,1.5h0.3H65v-1c0-0.5,0-1.2,0-1.5c0.1-0.7,0.2-1,0.6-1.2
		c0.2-0.1,0.3-0.2,0.7-0.2c0.6,0,0.8,0.1,1,0.5l0.2,0.3l0,1.5l0,1.5h0.3h0.3l0-1.5c0-1.4,0-1.6-0.1-1.9c-0.2-0.7-0.7-1-1.4-1.1
		c-0.6,0-1.2,0.2-1.6,0.5L64.8,10l-0.2-0.2c-0.3-0.2-0.4-0.3-0.8-0.4C63.6,9.3,63.1,9.3,62.8,9.4z"/>
	<path class="st0" d="M75.1,9.4c-0.3,0-0.4,0.1-0.6,0.3l-0.2,0.1V9.6V9.4h-0.3h-0.3v2.2v2.2h0.3h0.3l0-1.6c0-1.4,0-1.6,0.1-1.7
		c0.1-0.2,0.4-0.4,0.6-0.4l0.2,0V9.7c0-0.2,0-0.3,0-0.3C75.4,9.3,75.3,9.4,75.1,9.4z"/>
	<path class="st0" d="M77.2,9.4c-0.7,0.2-1.3,0.8-1.6,1.5c-0.1,0.2-0.1,0.5-0.1,0.8c0,0.4,0,0.6,0.2,0.9c0.2,0.5,0.6,0.9,1.1,1.1
		c0.3,0.2,0.4,0.2,0.9,0.2c0.7,0,0.9-0.1,1.4-0.5l0.3-0.3l0,0.2c-0.1,0.4-0.1,0.6-0.3,0.9c-0.6,0.8-2,0.9-2.4,0.1l-0.1-0.2h-0.3
		h-0.3l0,0.1c0.1,0.4,0.6,0.9,1.1,1.1c0.4,0.2,1.3,0.1,1.7,0c0.4-0.2,0.8-0.5,1-0.9c0.2-0.5,0.3-0.8,0.3-3v-2h-0.3h-0.3v0.3V10
		l-0.2-0.2c-0.4-0.3-0.7-0.5-1.3-0.5C77.6,9.3,77.3,9.3,77.2,9.4z M78.5,10c0.3,0.2,0.6,0.5,0.8,0.9c0.4,0.8,0,1.8-0.8,2.2
		c-0.8,0.4-1.7,0-2.1-0.8c-0.2-0.4-0.2-1.2,0-1.5c0.2-0.5,0.7-0.8,1.1-0.9C77.8,9.8,78.2,9.9,78.5,10z"/>
	<path class="st0" d="M83.7,9.4c-0.2,0.1-0.5,0.2-0.7,0.4c-0.1,0.1-0.1,0.1-0.1-0.1V9.4h-0.3h-0.3v2.2v2.2h0.3h0.3v-1.2
		c0-1.5,0-1.8,0.3-2.1c0.4-0.6,1.4-0.7,1.9-0.2c0.3,0.3,0.3,0.5,0.3,2.1v1.4h0.3H86v-1.3c0-0.7,0-1.4-0.1-1.7
		c-0.1-0.7-0.4-1.1-0.9-1.4C84.8,9.3,84.1,9.3,83.7,9.4z"/>
	<path class="st0" d="M88.2,9.4c-0.5,0.1-1,0.5-1.3,1c-0.3,0.4-0.3,0.8-0.3,1.4c0,0.5,0,0.6,0.2,0.9c0.2,0.5,0.6,0.9,1.1,1.1
		c0.3,0.2,0.4,0.2,0.9,0.2c0.7,0,0.9-0.1,1.4-0.5c0.1-0.1,0.3-0.2,0.3-0.2c0,0.2-0.2,0.7-0.3,0.9c-0.5,0.9-1.9,1-2.4,0.2l-0.2-0.3
		h-0.3l-0.3,0l0,0.2c0.1,0.5,0.6,0.9,1.1,1.1c0.4,0.2,1.3,0.1,1.7,0c0.4-0.2,0.8-0.5,1-0.9c0.2-0.5,0.3-0.8,0.3-3v-2h-0.3h-0.3v0.3
		V10l-0.2-0.2c-0.4-0.3-0.7-0.5-1.3-0.5C88.6,9.3,88.3,9.3,88.2,9.4z M89.5,10.1c0.8,0.4,1.2,1.4,0.8,2.2c-0.5,1.2-1.9,1.4-2.7,0.4
		c-0.8-1-0.3-2.4,0.9-2.8C88.8,9.9,89.2,10,89.5,10.1z"/>
	<polygon class="st0" points="80.9,11.6 80.9,13.8 81.2,13.8 81.4,13.8 81.4,11.6 81.4,9.4 81.2,9.4 80.9,9.4 	"/>
	<path class="st0" d="M64,19.2v2.9h0.4h0.4l0-2.3c0-1.3,0-2.2,0-2.2c0,0,0.7,1,1.4,2.3l1.4,2.2l0.5,0l0.5,0v-2.9v-2.9h-0.4h-0.4
		l0,2.3l0,2.3l-0.2-0.3c-0.1-0.2-0.7-1.2-1.4-2.3l-1.2-2l-0.4,0H64V19.2z"/>
	<path class="st0" d="M90,19.3v2.8h0.3h0.3l0-1.1l0-1.1l0.8,1l0.8,1l0.4,0c0.3,0,0.4,0,0.3-0.1c0,0-0.4-0.5-0.8-1
		c-0.4-0.5-0.8-1-0.8-1c-0.1-0.1,0-0.2,0.7-1c0.4-0.5,0.7-1,0.7-1c0,0-0.1,0-0.3,0h-0.3l-0.7,0.9l-0.7,0.9l0-1.6l0-1.6l-0.3,0
		l-0.3,0V19.3z"/>
	<path class="st0" d="M75.1,17.3V18l-0.4,0l-0.4,0v0.2v0.2l0.4,0l0.4,0v1.8v1.8h0.3h0.3v-1.8v-1.8h0.4c0.4,0,0.4,0,0.4-0.1
		c0-0.1,0.3,0.6,0.7,1.8l0.7,2h0.2h0.2l0.2-0.5c0.1-0.3,0.3-1,0.5-1.6l0.3-1l0.1,0.3c0.1,0.2,0.3,0.9,0.5,1.6l0.4,1.2h0.2h0.2
		l0.7-2.1L82,18h-0.3h-0.3l-0.5,1.6l-0.5,1.6L80,19.9c-0.2-0.7-0.4-1.4-0.5-1.6L79.5,18l-0.2,0L79,18l-0.5,1.5
		c-0.4,1.3-0.5,1.5-0.5,1.4c0-0.1-0.3-0.8-0.5-1.5C77.3,18.7,77.1,18,77,18c0,0-0.3,0-0.7,0l-0.6,0v-0.7v-0.7h-0.3h-0.3V17.3z"/>
	<path class="st0" d="M71.3,17.7c-0.7,0.1-1.1,0.5-1.4,1.1c-0.2,0.4-0.2,0.4-0.2,1c0,0.6,0,0.6,0.2,1c0.2,0.5,0.6,0.9,1.1,1.1
		c0.3,0.1,0.4,0.2,0.9,0.2c0.6,0,0.6,0,0.9-0.1c0.2-0.1,0.4-0.2,0.5-0.3c0.2-0.2,0.6-0.8,0.6-0.9c0,0-0.1-0.1-0.3-0.1
		c-0.3,0-0.3,0-0.5,0.2c-0.2,0.3-0.5,0.5-0.9,0.6c-0.5,0.1-1.1,0-1.5-0.3c-0.2-0.2-0.4-0.6-0.5-0.9l0-0.2h1.9H74v-0.2
		c0-0.1,0-0.4-0.1-0.5c-0.2-0.9-0.9-1.5-1.7-1.6C71.8,17.6,71.7,17.6,71.3,17.7z M72.4,18.3c0.4,0.2,0.8,0.6,0.9,1.1l0,0.2h-1.6
		h-1.6l0-0.2c0.1-0.3,0.3-0.6,0.5-0.8c0.3-0.3,0.6-0.4,1.1-0.4C72.1,18.2,72.3,18.3,72.4,18.3z"/>
	<path class="st0" d="M83.7,17.9c-0.4,0.2-0.8,0.6-1,1c-0.1,0.3-0.2,0.4-0.2,1c0,0.6,0,0.7,0.1,1c0.2,0.4,0.6,0.8,1,1.1
		c0.3,0.2,0.4,0.2,0.9,0.2c0.8,0,1.2-0.2,1.6-0.5c0.2-0.2,0.4-0.4,0.5-0.7c0.2-0.4,0.2-0.4,0.2-1c0-0.6,0-0.6-0.2-1
		c-0.2-0.3-0.6-0.7-0.8-0.9c-0.4-0.2-0.5-0.3-1.1-0.3C84.1,17.7,84,17.7,83.7,17.9z M85.2,18.3c0.3,0.1,0.7,0.4,0.9,0.8
		c0.2,0.4,0.3,1.1,0.1,1.5c-0.2,0.6-0.8,1-1.5,1c-0.6,0-1.3-0.5-1.5-1.1c-0.1-0.3-0.1-1.2,0.1-1.5C83.6,18.4,84.3,18.1,85.2,18.3z"
		/>
	<path class="st0" d="M89.1,17.9c-0.2,0-0.5,0.2-0.7,0.3l-0.1,0.1l0-0.2V18H88h-0.3v2.1v2.1h0.3h0.3v-1.5c0-1.6,0-1.8,0.3-2
		c0.1-0.1,0.3-0.1,0.4-0.2l0.2-0.1v-0.3c0-0.2,0-0.3,0-0.3C89.2,17.9,89.2,17.9,89.1,17.9z"/>
	<path class="st0" d="M73.4,24.7c-0.7,0.3-1.2,1.1-1,1.9c0.1,0.6,0.5,0.9,1.4,1.3c0.9,0.3,1.2,0.7,1.1,1.3c-0.1,0.3-0.2,0.5-0.4,0.6
		c-0.2,0.2-0.7,0.2-0.9,0c-0.2-0.2-0.4-0.4-0.4-0.7l0-0.3h-0.4h-0.4l0,0.4c0.1,0.7,0.4,1.3,1,1.5c0.4,0.2,1.1,0.1,1.4-0.1
		c0.3-0.2,0.6-0.5,0.8-0.8c0.2-0.4,0.2-1.3,0.1-1.6c-0.2-0.5-0.5-0.7-1.4-1c-0.7-0.3-0.8-0.3-0.9-0.6c-0.3-0.7,0.6-1.4,1.2-0.9
		c0.2,0.1,0.3,0.5,0.3,0.7v0.2h0.4h0.4v-0.2c0-0.1,0-0.3-0.1-0.5c-0.2-0.7-0.6-1-1.4-1.1C73.8,24.6,73.6,24.6,73.4,24.7z"/>
	<polygon class="st0" points="83.3,25.5 83.3,26.2 82.9,26.2 82.5,26.2 82.5,26.5 82.5,26.8 82.9,26.8 83.3,26.8 83.3,28.6 
		83.3,30.5 83.6,30.5 83.9,30.5 83.9,28.6 83.9,26.8 84.3,26.8 84.7,26.8 84.7,26.5 84.7,26.2 84.3,26.2 83.9,26.2 83.9,25.5 
		83.9,24.8 83.6,24.8 83.3,24.8 	"/>
	<path class="st0" d="M80.5,26.1c-0.5,0.2-0.7,0.6-0.7,1.2c0,0.6,0.2,0.8,0.9,1.1c0.8,0.3,1,0.5,1,0.9c0,0.2,0,0.3-0.2,0.4
		c-0.2,0.2-0.2,0.2-0.4,0.2c-0.4,0-0.8-0.2-0.8-0.7l0-0.2h-0.3h-0.3l0,0.3c0,0.4,0.3,0.8,0.5,1c0.5,0.4,1.3,0.4,1.8,0
		c0.3-0.2,0.4-0.5,0.4-1c0-0.7-0.2-1-1.1-1.3c-0.4-0.1-0.7-0.4-0.8-0.6c-0.1-0.4,0.2-0.7,0.6-0.7c0.2,0,0.3,0,0.4,0.2
		c0.1,0.1,0.2,0.2,0.2,0.3c0,0.1,0,0.1,0.3,0.1h0.3l0-0.2c0-0.3-0.2-0.6-0.5-0.8c-0.2-0.1-0.3-0.2-0.7-0.2
		C80.8,26.1,80.6,26.1,80.5,26.1z"/>
	<path class="st0" d="M86.3,26.2c-0.8,0.3-1.3,1-1.4,1.8c-0.1,1.1,0.4,2,1.3,2.4c0.3,0.2,0.4,0.2,0.9,0.2c0.5,0,0.6,0,0.9-0.2
		c0.4-0.2,0.8-0.5,1-0.9c0.1-0.2,0.2-0.3,0.2-0.3c0,0-0.2,0-0.3,0c-0.2,0-0.3,0-0.3,0c0,0.1-0.5,0.6-0.7,0.7c-0.3,0.2-1.1,0.2-1.4,0
		c-0.4-0.2-0.8-0.7-0.9-1.2l0-0.2h1.9h1.9l0-0.4c0-0.5-0.2-0.9-0.5-1.3c-0.3-0.3-0.5-0.5-0.9-0.6C87.6,26,86.7,26,86.3,26.2z
		 M87.7,26.8c0.3,0.1,0.6,0.5,0.8,0.9c0.1,0.2,0.1,0.3,0.1,0.3c0,0-0.7,0-1.6,0h-1.6l0.1-0.2c0.1-0.5,0.6-1,1-1.1
		C86.9,26.6,87.4,26.6,87.7,26.8z"/>
	<path class="st0" d="M91.2,26.1c-0.1,0-0.4,0.1-0.5,0.2l-0.2,0.2v-0.2v-0.2h-0.3h-0.3v2.1v2.1h0.3h0.3l0-1.5c0-1.4,0-1.5,0.2-1.7
		c0.3-0.7,1.4-0.8,1.9-0.3c0.3,0.3,0.3,0.6,0.3,2.1v1.4h0.3h0.3l0-1.5c0-1.4,0-1.5,0.1-1.7c0.2-0.4,0.6-0.6,1.1-0.6
		c0.3,0,0.7,0.1,0.8,0.3c0.2,0.3,0.3,0.6,0.3,2.1v1.4h0.3h0.3l0-1.5c0-1.7-0.1-1.8-0.4-2.3c-0.5-0.8-2-0.8-2.7,0l-0.1,0.1L93,26.6
		C92.6,26.2,91.8,26,91.2,26.1z"/>
	<path class="st0" d="M97.9,26.1c-0.3,0.1-0.5,0.4-0.6,0.6c-0.1,0.2-0.1,0.3-0.1,0.6c0,0.5,0.2,0.7,0.6,0.9c1.2,0.6,1.3,0.6,1.3,1
		c0,0.2,0,0.3-0.2,0.4c-0.2,0.2-0.2,0.2-0.5,0.2c-0.3,0-0.3,0-0.5-0.1c-0.2-0.2-0.3-0.4-0.3-0.6c0-0.1,0-0.1-0.3-0.1h-0.3l0,0.3
		c0.1,0.9,0.9,1.4,1.8,1.2c0.6-0.2,0.9-0.6,0.9-1.2c0-0.7-0.3-1-1-1.3c-0.2-0.1-0.4-0.2-0.5-0.2c-0.3-0.2-0.5-0.5-0.3-0.8
		c0.1-0.2,0.3-0.4,0.6-0.4c0.2,0,0.3,0,0.4,0.2c0.1,0.1,0.2,0.2,0.2,0.3c0,0.1,0,0.1,0.3,0.1h0.3l0-0.2c-0.1-0.3-0.2-0.6-0.5-0.8
		c-0.2-0.1-0.3-0.2-0.7-0.2C98.2,26.1,98,26.1,97.9,26.1z"/>
	<path class="st0" d="M75.6,26.2c0,0,0.4,1,0.8,2.1l0.8,2.1L77,31.1c-0.2,0.4-0.3,0.7-0.3,0.7c0,0.1,0.6,0,0.7,0
		c0,0,0.5-1.3,1.1-2.8c0.6-1.5,1.1-2.7,1.1-2.8c0,0-0.2,0-0.3,0h-0.3l-0.7,1.7l-0.7,1.7L77,27.9l-0.6-1.7H76
		C75.8,26.2,75.6,26.2,75.6,26.2z"/>
	<path class="st0" d="M84.3,35.1c0,1.6,0,3.1,0,3.2l0,0.3h0.3c0.2,0,0.3,0,0.3,0.1c0,0.1,0,0.1,0,0c0,0,0.1-0.1,0.3-0.1
		c0.1,0,0.6,0,1.2,0l1,0v-0.5v-0.5h-1.1h-1.1l0-2.8l0-2.8l-0.4,0l-0.4,0L84.3,35.1z"/>
	<path class="st0" d="M77.7,36.8c-0.3,0.1-0.7,0.4-0.8,0.7l-0.1,0.3l0,7.9c0,4.3,0,8,0,8.2c0,0.4,0.3,0.8,0.6,1.1l0.3,0.2l1.8,0
		l1.7,0l0.3-0.2c0.4-0.2,0.6-0.5,0.7-0.9c0-0.2,0.1-2.7,0.1-8.2c0-9,0-8.3-0.4-8.8c-0.4-0.4-0.5-0.4-2.3-0.4
		C78.3,36.8,77.9,36.8,77.7,36.8z"/>
	<path class="st0" d="M91,37.3c-0.2,0.1-0.4,0.1-0.5,0.2s-0.2,0.1-0.2,0.1c-0.1,0-0.7,0.7-0.8,0.9c-0.3,0.7-0.3,1.6,0.1,2.3
		c0.1,0.2,0.6,0.8,0.8,0.9c0,0,0.1,0.1,0.2,0.1c0,0,0.2,0.1,0.2,0.1c0.1,0,0.2,0,0.2,0c0.2,0.1,1.3,0,1.7-0.2
		c0.1-0.1,0.3-0.1,0.3-0.1c0,0,0,0,0,0c0,0,0-0.1,0.1-0.1c0.1-0.1,0.1,0,0.1,0.2v0.2h0.4h0.4v-2.4v-2.4h-0.4h-0.4v0.2v0.2l-0.2-0.1
		c-0.3-0.2-0.4-0.2-0.8-0.3C91.8,37.2,91.5,37.2,91,37.3z M92.3,38.2c0.3,0.1,0.6,0.5,0.8,0.8c0.1,0.2,0.1,0.3,0.1,0.7
		c0,0.5-0.2,0.9-0.6,1.3c-0.7,0.6-1.8,0.5-2.3-0.4c-0.2-0.3-0.2-0.9-0.1-1.3C90.5,38.3,91.5,37.8,92.3,38.2z"/>
	<path class="st0" d="M96,41.6c0,2,0,3.6,0,3.6c0,0,0.2,0,0.4,0l0.3,0v-0.3l0-0.3l0.1,0.2c0.4,0.5,0.8,0.7,1.5,0.7
		c0.4,0,0.7-0.1,0.9-0.3c0.3-0.2,0.5-0.5,0.5-0.6c0,0,0.1-0.1,0.1-0.2c0.1-0.1,0.1-0.3,0.2-0.4c0-0.1,0.1-0.3,0.1-0.4
		c0.1-0.3,0.1-1.3,0-1.6c0-0.1-0.1-0.3-0.1-0.4c0-0.1-0.1-0.3-0.2-0.4c-0.1-0.1-0.2-0.3-0.2-0.3c0-0.1-0.4-0.4-0.7-0.5
		c-0.3-0.1-0.4-0.1-0.8-0.1c-0.4,0-0.5,0-0.8,0.2c-0.2,0.1-0.4,0.3-0.5,0.4l-0.2,0.2v-1.5V38h-0.4H96V41.6z M98.5,41
		c0.1,0,0.2,0.2,0.3,0.3c0.3,0.4,0.5,1.2,0.4,1.9c0,0.2-0.1,0.4-0.1,0.4c0,0.3-0.4,0.7-0.7,0.9c-0.2,0.1-0.6,0.1-0.8,0
		c-0.5-0.2-0.7-0.7-0.8-1.5c-0.1-1.1,0.3-1.9,1-2C98.3,40.9,98.4,40.9,98.5,41z"/>
	<path class="st0" d="M71.5,38.9c-1,0.2-1.8,1.4-2.2,3.2c-0.1,0.7-0.2,2.3-0.1,3.1c0.2,1.9,0.9,2.9,2.8,3.8c0.7,0.3,1.1,0.7,1.2,1.1
		c0.2,0.7,0,1.6-0.3,2.1c-0.2,0.3-0.5,0.4-0.8,0.4c-0.8,0-1.3-0.6-1.5-1.8c0-0.2-0.1-0.4-0.1-0.4c0,0-1.5,0.7-1.6,0.7
		c0,0,0.1,0.8,0.2,1.5c0.5,2.1,1.7,3.2,3.2,3c0.9-0.1,1.6-0.6,2.1-1.7c0.4-0.9,0.7-1.9,0.7-3.2c0.1-1.5-0.2-2.6-0.7-3.7
		c-0.1-0.3-0.3-0.5-0.6-0.8c-0.4-0.4-0.5-0.4-1.3-0.9c-1.3-0.7-1.5-0.9-1.5-1.9c0-0.6,0.1-1,0.4-1.2c0.4-0.3,0.9-0.3,1.3-0.1
		c0.3,0.2,0.5,0.7,0.6,1.2c0.1,0.2,0.1,0.4,0.1,0.4c0,0,1.4-0.9,1.5-1c0,0,0-0.3-0.1-0.5c-0.4-1.7-1.1-2.7-2-3.1
		C72.4,38.9,71.8,38.9,71.5,38.9z"/>
	<polygon class="st0" points="55.4,47.2 55.4,55.2 58.1,55.2 60.9,55.2 60.9,53.6 60.9,52 59,52 57.2,52 57.2,50.3 57.2,48.5 
		58.6,48.5 60.1,48.5 60.1,47 60.1,45.5 58.6,45.5 57.2,45.5 57.2,43.9 57.2,42.2 59,42.2 60.9,42.2 60.9,40.7 60.9,39.2 58.1,39.2 
		55.4,39.2 	"/>
	<path class="st0" d="M62,47.2v8h0.7h0.7l0-5.4c0-3,0-5.4,0-5.4c0,0,0.7,2.4,1.5,5.3c0.8,2.9,1.5,5.3,1.5,5.4c0,0.1,0.1,0.1,0.8,0.1
		H68v-8v-8h-0.7h-0.7l0,4.7c0,2.6,0,4.7,0,4.7c0,0-0.6-2.1-1.3-4.6c-0.7-2.5-1.3-4.6-1.3-4.7c0-0.1-0.1-0.1-1-0.1h-1V47.2z"/>
	<path class="st0" d="M83.7,40.3c-0.3,0.2-0.5,0.4-0.7,0.7c-0.1,0.2-0.1,0.3-0.1,6.6c0,4.8,0,6.5,0.1,6.6c0.1,0.3,0.4,0.7,0.7,0.8
		c0.2,0.1,0.4,0.1,1.9,0.1c1.3,0,1.7,0,1.9-0.1c0.2-0.1,0.6-0.4,0.7-0.6l0.1-0.2l0-6.4c0-4.2,0-6.5,0-6.6c-0.1-0.3-0.3-0.6-0.6-0.8
		l-0.3-0.2l-1.7,0C83.9,40.2,83.9,40.2,83.7,40.3z"/>
	<path class="st0" d="M89.8,43.7c-0.3,0.1-0.6,0.5-0.7,0.8c-0.1,0.3-0.1,9.4,0,9.7c0.1,0.3,0.4,0.7,0.7,0.8c0.2,0.1,0.4,0.1,1.9,0.1
		c1.3,0,1.7,0,1.9-0.1c0.3-0.1,0.6-0.4,0.7-0.7l0.1-0.3v-4.7v-4.7l-0.1-0.3c-0.1-0.3-0.4-0.6-0.7-0.7c-0.1-0.1-0.6-0.1-1.9-0.1
		C90.2,43.6,90,43.6,89.8,43.7z"/>
	<path class="st0" d="M96,47.1c-0.3,0.1-0.7,0.4-0.8,0.7L95.1,48l0,2.9c0,2,0,3,0,3.2c0.1,0.4,0.3,0.8,0.7,0.9l0.3,0.2h1.7
		c1.7,0,1.7,0,2-0.1c0.3-0.1,0.5-0.4,0.7-0.7c0.1-0.2,0.1-0.6,0.1-3.2c0-2.4,0-3.1-0.1-3.2c-0.1-0.3-0.4-0.6-0.7-0.7
		C99.6,47,99.5,47,97.9,47C96.6,47,96.2,47,96,47.1z"/>
</g>
</svg>
