<?xml version="1.0" encoding="utf-8"?>
<!-- Generator: Adobe Illustrator 26.2.0, SVG Export Plug-In . SVG Version: 6.00 Build 0)  -->
<svg version="1.1" id="레이어_1" xmlns="http://www.w3.org/2000/svg" xmlns:xlink="http://www.w3.org/1999/xlink" x="0px"
	 y="0px" viewBox="0 0 102 58" style="enable-background:new 0 0 102 58;" xml:space="preserve">
<style type="text/css">
	.st0{fill-rule:evenodd;clip-rule:evenodd;}
</style>
<g>
	<path class="st0" d="M47.4,1.2c0,0.1,1.7,5.4,1.8,5.6c0,0.2,0,0.2,0.4,0.2h0.3l0.1-0.2c0-0.1,0.3-1,0.5-2c0.2-1,0.5-1.8,0.5-1.8
		c0,0,0.2,0.9,0.5,2l0.5,2l0.3,0l0.3,0l0.9-2.9c0.5-1.6,0.9-2.9,0.9-2.9c0,0-0.2,0-0.4,0h-0.4l-0.6,2c-0.3,1.1-0.6,2-0.6,2
		c0,0-0.2-0.8-0.5-1.9c-0.3-1-0.5-1.9-0.5-2l0-0.2l-0.4,0l-0.4,0l-0.5,2c-0.3,1.1-0.5,2-0.5,2c0,0-0.3-1-0.6-2l-0.6-2l-0.4,0
		C47.5,1.1,47.4,1.1,47.4,1.2z"/>
	<polygon class="st0" points="54.5,1.7 54.5,2.1 54.8,2.1 55.1,2.1 55.1,1.7 55.1,1.2 54.8,1.2 54.5,1.2 	"/>
	<polygon class="st0" points="62.6,4 62.6,6.8 62.9,6.8 63.2,6.8 63.2,4 63.2,1.2 62.9,1.2 62.6,1.2 	"/>
	<path class="st0" d="M59.3,2.5c-0.6,0.2-1.2,0.6-1.4,1.2c-0.3,0.6-0.3,1.5,0,2c0.2,0.4,0.7,0.9,1.2,1.1c0.4,0.2,1.2,0.2,1.6,0
		c0.4-0.1,0.9-0.7,1.1-1.1l0.1-0.2l-0.3,0c-0.3,0-0.3,0-0.4,0.1c-0.2,0.3-0.4,0.5-0.7,0.6c-0.2,0.1-0.3,0.1-0.7,0.1s-0.5,0-0.7-0.1
		c-0.5-0.2-0.7-0.6-0.9-1.1l0-0.2h1.9H62V4.6c0-0.9-0.6-1.7-1.3-2C60.3,2.5,59.7,2.4,59.3,2.5z M60.3,3.1c0.5,0.1,0.9,0.6,1.1,1.1
		l0,0.2h-1.5c-1.7,0-1.6,0-1.4-0.5c0.2-0.4,0.5-0.7,0.9-0.8C59.6,3,60.1,3,60.3,3.1z"/>
	<path class="st0" d="M65.5,2.5c-0.4,0.1-0.8,0.3-1,0.6c-1.2,1.3-0.5,3.5,1.2,3.8c0.9,0.2,1.9-0.3,2.3-1.1l0.2-0.3h-0.3
		c-0.3,0-0.4,0-0.4,0.1c-0.4,0.6-1.1,0.9-1.8,0.7c-0.5-0.2-1-0.7-1.1-1.2l0-0.2h1.9h1.9V4.6c0-0.3-0.1-0.8-0.3-1.2
		c-0.2-0.3-0.6-0.7-1-0.8C66.5,2.5,65.8,2.4,65.5,2.5z M66.5,3.1c0.5,0.1,0.9,0.6,1.1,1.1l0,0.2H66c-1.7,0-1.6,0-1.5-0.3
		c0.1-0.4,0.5-0.8,0.9-0.9C65.7,3,66.2,3,66.5,3.1z"/>
	<path class="st0" d="M69.6,2.5c-0.6,0.2-1,0.8-0.9,1.5c0.1,0.4,0.2,0.5,1.3,1c0.4,0.2,0.5,0.3,0.5,0.6c0,0.4-0.3,0.7-0.7,0.7
		c-0.3,0-0.6-0.3-0.7-0.8c0-0.1,0-0.1-0.3-0.1h-0.3l0,0.3c0.1,0.5,0.4,1,0.8,1.1c0.2,0.1,0.9,0.1,1.1,0c0.5-0.2,0.8-0.6,0.8-1.1
		c0-0.7-0.3-1-1.1-1.3c-0.6-0.2-0.8-0.4-0.8-0.7c0-0.5,0.6-0.8,1-0.4c0.1,0.1,0.1,0.2,0.2,0.3c0,0.1,0,0.2,0.4,0.2h0.3l0-0.2
		c0-0.2-0.1-0.5-0.3-0.6C70.6,2.5,70,2.4,69.6,2.5z"/>
	<path class="st0" d="M72.7,2.5c-0.4,0.1-0.7,0.3-0.8,0.7c-0.1,0.2-0.1,0.8,0,1c0.1,0.3,0.3,0.4,0.9,0.6c0.7,0.3,0.8,0.4,0.8,0.9
		c0,0.5-0.6,0.8-1.1,0.5c-0.2-0.1-0.3-0.4-0.3-0.6c0-0.1,0-0.1-0.3-0.1h-0.3l0,0.2c0.1,0.6,0.3,0.9,0.7,1.1c0.3,0.2,0.9,0.2,1.3,0
		c0.5-0.2,0.6-0.5,0.6-1c0-0.2,0-0.5,0-0.6c-0.1-0.3-0.4-0.6-0.9-0.7c-0.7-0.2-0.9-0.4-0.9-0.8c0-0.4,0.4-0.7,0.8-0.6
		c0.2,0.1,0.4,0.3,0.4,0.5c0,0.1,0.1,0.1,0.3,0.1c0.3,0,0.3,0,0.3-0.1C74.2,2.8,73.5,2.3,72.7,2.5z"/>
	<path class="st0" d="M57,2.6c-0.1,0-0.3,0.1-0.4,0.2L56.4,3V2.8V2.6h-0.3h-0.3v2.1v2.1h0.3h0.3V5.4c0-1.4,0-1.7,0.2-1.9
		c0.1-0.1,0.4-0.3,0.6-0.4c0.1,0,0.1,0,0.1-0.3C57.4,2.5,57.4,2.4,57,2.6z"/>
	<polygon class="st0" points="54.5,4.7 54.5,6.8 54.8,6.8 55.1,6.8 55.1,4.7 55.1,2.6 54.8,2.6 54.5,2.6 	"/>
	<path class="st0" d="M26.7,2.9c-5.6,0.4-10.8,2.5-15.2,6c-1.4,1.1-1.9,1.7-1.9,2.2c0,0.2,0.2,0.5,0.5,0.6c0.3,0.1,0.7,0,1.2-0.4
		c0.2-0.2,0.7-0.6,1.1-0.9c1.4-1.1,2.7-2,4.4-2.8c2.6-1.3,5.2-2,8.2-2.4c1-0.1,3.4-0.1,4.4,0c6.8,0.7,12.8,4,16.9,9.4
		c1.5,2,2.8,4.5,3.6,6.9c0.5,1.4,0.8,3,1,4.6c0.1,0.9,0.2,2.6,0.1,2.7c0,0-0.9,0.4-2,0.8c-2.2,0.9-5.9,2.3-8.5,3.4
		c-0.9,0.4-1.9,0.8-2.2,0.9c-0.3,0.1-0.6,0.2-0.7,0.2c-0.6,0-1-0.6-1.4-1.9c-0.8-2.9-1.9-6.2-3.2-9.7c-1.2-3.3-1.9-4.9-3-7.2
		c-2.1-4.2-3.7-6.3-5.6-7.2c-0.6-0.3-1-0.4-1.7-0.4c-0.7,0-1,0-1.6,0.3c-1.2,0.6-2.3,1.7-3.6,3.9c-1.4,2.5-2.4,5-3.6,9.1
		c-0.3,1-0.6,1.9-0.6,2c-0.3,0.5-0.5,0-0.9-1.8c-0.5-2.6-1.3-4.7-2.4-6.3c-0.5-0.7-1.1-1.4-1.5-1.6c-0.5-0.3-1-0.1-1.5,0.4
		c-0.4,0.4-1.4,1.9-2,3c-4.1,7.3-4.7,15.9-1.6,23.8c0.4,1,1.3,2.9,1.9,3.9c4.2,7,11.2,11.7,19.1,13c1.7,0.3,2.3,0.3,4.5,0.3
		c2.1,0,2.7,0,4.4-0.3c4.9-0.8,9.6-2.9,13.4-6.2c0.8-0.7,2.5-2.3,3.1-3.2c2.3-2.8,4-5.8,5.1-9.1c0.1-0.4,0.3-0.7,0.3-0.7
		c0.1,0,2.7-0.3,4.7-0.5c2.6-0.2,6.3-0.4,9-0.5c2.1-0.1,2.5-0.1,2.9-0.2c0.4-0.1,0.9-0.3,1-0.5c0.1-0.2,0.1-0.5,0-0.8
		c-0.1-0.2-8.1-8.2-9.2-9.2c-0.7-0.6-1.1-0.8-1.7-0.9c-0.8-0.1-1.8,0.1-4.4,1c-1.2,0.4-1.2,0.4-1.2,0.1c0-0.2-0.2-1.6-0.4-2.3
		c-0.9-4.1-2.8-8-5.4-11.2c-1.5-1.9-3.1-3.4-4.9-4.8C40.9,5.2,36,3.3,30.5,2.9C29.7,2.9,27.6,2.9,26.7,2.9z M7.1,21.5
		c0.3,0.1,0.5,0.4,0.6,0.9c0.5,1.5,0.8,4.3,1.2,10c0.2,3.6,0.4,4.5,1,5.2c0.3,0.3,0.6,0.5,1,0.5c0.8,0.1,1.6-0.2,2.2-0.8
		c0.6-0.6,0.9-1.1,1.6-2.9c2.5-6.3,4.2-9.4,5.2-9.2c0.9,0.2,2.1,3.2,3.1,7.9c0.5,2.4,0.8,4.3,1,7.2c0.1,1.1,0.2,2.3,0.3,2.5
		c0.3,1.8,0.7,2.5,2,3.3c0.5,0.3,2,1,2.7,1.3c1.4,0.6,2.6,0.6,3.8,0.3c1-0.3,2-0.9,4.3-2.7c2.1-1.6,3.2-2.3,4.8-3.1
		c1.7-0.9,4-1.9,6-2.4c0.3-0.1,0.6-0.2,0.7-0.2c0.2-0.1-0.9,1.9-1.8,3.2c-4.2,5.9-10.6,9.6-17.8,10.1c-1,0.1-3.3,0-4.3-0.1
		c-5.2-0.6-9.7-2.7-13.6-6.2c-1.7-1.5-3.3-3.7-4.5-5.7c-1.7-3-2.7-6.4-3-10.1c-0.1-1,0-3.4,0.1-4c0.3-1.6,0.9-3.2,1.5-4
		C5.7,21.7,6.6,21.2,7.1,21.5z"/>
	<polygon class="st0" points="57.6,11.5 57.6,14.5 59.2,14.5 60.8,14.5 60.8,14.1 60.8,13.7 59.6,13.7 58.4,13.7 58.4,12.8 
		58.4,11.9 59.6,11.9 60.8,11.9 60.8,11.5 60.8,11.1 59.6,11.1 58.4,11.1 58.4,10.2 58.4,9.4 59.6,9.4 60.8,9.4 60.8,8.9 60.8,8.5 
		59.2,8.5 57.6,8.5 	"/>
	<polygon class="st0" points="80.9,9.1 80.9,9.6 81.2,9.6 81.5,9.6 81.5,9.1 81.5,8.7 81.2,8.7 80.9,8.7 	"/>
	<path class="st0" d="M70.7,10c-1.2,0.2-1.9,1.2-1.8,2.5c0.1,1,0.9,1.9,1.9,2.1c1,0.2,1.9-0.3,2.3-1.2c0.1-0.1,0.1-0.3,0.1-0.3
		c0,0-0.2,0-0.3,0c-0.3,0-0.3,0-0.4,0.1c-0.1,0.2-0.4,0.5-0.7,0.7c-0.4,0.2-1,0.2-1.4,0c-0.4-0.2-0.6-0.5-0.8-0.9
		c-0.2-0.5-0.4-0.5,1.8-0.5h1.9l0-0.3C73.2,10.6,72.1,9.7,70.7,10z M71.8,10.7c0.4,0.2,0.7,0.6,0.8,1l0,0.1h-1.6h-1.6l0.1-0.3
		C69.8,10.7,70.9,10.2,71.8,10.7z"/>
	<path class="st0" d="M63,10c-0.3,0.1-0.5,0.2-0.7,0.3l-0.1,0.1v-0.2v-0.2h-0.3h-0.3v2.2v2.2h0.3h0.3l0-1.5l0-1.5l0.1-0.3
		c0.4-0.6,1.4-0.8,1.9-0.3c0.3,0.3,0.3,0.5,0.4,2.1l0,1.5H65h0.3v-1c0-0.5,0-1.2,0-1.5c0.1-0.7,0.2-0.9,0.6-1.2
		c0.2-0.1,0.3-0.1,0.6-0.1c0.6,0,0.8,0.1,1,0.5l0.2,0.3l0,1.5l0,1.5H68h0.3l0-1.5c0-1.4,0-1.5-0.1-1.8c-0.2-0.7-0.6-1-1.4-1
		c-0.6,0-1.2,0.2-1.5,0.5L65,10.6l-0.2-0.2c-0.3-0.2-0.4-0.3-0.8-0.4C63.8,9.9,63.3,9.9,63,10z"/>
	<path class="st0" d="M75.3,10c-0.3,0-0.4,0.1-0.6,0.3l-0.1,0.1v-0.2v-0.2h-0.3h-0.3v2.2v2.2h0.3h0.3l0-1.6c0-1.4,0-1.6,0.1-1.7
		c0.1-0.2,0.4-0.4,0.6-0.4l0.2,0v-0.3c0-0.2,0-0.3,0-0.3C75.5,10,75.4,10,75.3,10z"/>
	<path class="st0" d="M77.3,10c-0.7,0.2-1.3,0.8-1.5,1.5c-0.1,0.2-0.1,0.5-0.1,0.8c0,0.4,0,0.6,0.2,0.9c0.2,0.5,0.6,0.9,1.1,1.1
		c0.3,0.2,0.4,0.2,0.9,0.2c0.7,0,0.9-0.1,1.4-0.5l0.3-0.3l0,0.2c-0.1,0.4-0.1,0.6-0.3,0.9c-0.6,0.8-1.9,0.9-2.4,0.1l-0.1-0.2h-0.3
		H76l0,0.1c0.1,0.4,0.6,0.9,1.1,1.1c0.4,0.2,1.3,0.1,1.7,0c0.4-0.1,0.8-0.5,1-0.9c0.2-0.5,0.3-0.8,0.3-2.9v-2h-0.3h-0.3v0.3v0.3
		l-0.2-0.2C78.9,10.1,78.6,10,78,10C77.7,10,77.4,10,77.3,10z M78.6,10.7c0.3,0.2,0.6,0.5,0.8,0.9c0.4,0.8,0,1.8-0.8,2.2
		c-0.8,0.4-1.7,0-2.1-0.8c-0.2-0.4-0.2-1.2,0-1.5c0.2-0.4,0.6-0.8,1.1-0.9C77.8,10.5,78.3,10.5,78.6,10.7z"/>
	<path class="st0" d="M83.8,10c-0.2,0.1-0.5,0.2-0.7,0.4c-0.1,0.1-0.1,0.1-0.1-0.1v-0.2h-0.3h-0.3v2.2v2.2h0.3h0.3v-1.2
		c0-1.5,0-1.8,0.3-2.1c0.4-0.6,1.4-0.7,1.9-0.2c0.3,0.3,0.3,0.5,0.3,2.1v1.4h0.3H86v-1.2c0-0.7,0-1.4-0.1-1.7
		c-0.1-0.7-0.4-1.1-0.9-1.4C84.8,10,84.1,9.9,83.8,10z"/>
	<path class="st0" d="M88.2,10c-0.5,0.1-1,0.5-1.3,0.9c-0.3,0.4-0.3,0.8-0.3,1.4c0,0.5,0,0.6,0.2,0.9c0.2,0.5,0.6,0.9,1.1,1.1
		c0.3,0.2,0.4,0.2,0.9,0.2c0.7,0,0.9-0.1,1.4-0.5c0.1-0.1,0.3-0.2,0.3-0.2c0,0.2-0.2,0.7-0.3,0.9c-0.5,0.9-1.9,1-2.4,0.2l-0.2-0.3
		h-0.3l-0.3,0l0,0.2c0.1,0.4,0.6,0.9,1.1,1.1c0.4,0.2,1.3,0.1,1.7,0c0.4-0.1,0.8-0.5,1-0.9c0.2-0.5,0.3-0.8,0.3-3v-2h-0.3h-0.3v0.3
		v0.3l-0.2-0.2c-0.4-0.3-0.6-0.4-1.3-0.5C88.6,10,88.3,10,88.2,10z M89.5,10.7c0.8,0.4,1.1,1.4,0.8,2.2c-0.5,1.2-1.9,1.4-2.6,0.4
		c-0.8-1-0.3-2.4,0.9-2.7C88.8,10.5,89.2,10.6,89.5,10.7z"/>
	<polygon class="st0" points="80.9,12.2 80.9,14.4 81.2,14.4 81.5,14.4 81.5,12.2 81.5,10.1 81.2,10.1 80.9,10.1 	"/>
	<path class="st0" d="M64.2,19.8v2.9h0.4H65l0-2.3c0-1.3,0-2.2,0-2.2c0,0,0.7,1,1.4,2.2l1.4,2.2l0.5,0l0.5,0v-2.9v-2.9h-0.4h-0.4
		l0,2.2l0,2.3l-0.2-0.3c-0.1-0.2-0.7-1.2-1.4-2.3l-1.2-2l-0.4,0h-0.4V19.8z"/>
	<path class="st0" d="M90,19.9v2.8h0.3h0.3l0-1l0-1l0.8,1l0.8,1l0.4,0c0.3,0,0.4,0,0.3-0.1c0,0-0.4-0.5-0.8-1c-0.4-0.5-0.8-1-0.8-1
		c-0.1-0.1,0-0.2,0.7-1c0.4-0.5,0.7-1,0.7-1c0,0-0.1,0-0.3,0h-0.3l-0.7,0.9l-0.7,0.9l0-1.6l0-1.6l-0.3,0l-0.3,0V19.9z"/>
	<path class="st0" d="M75.2,17.8v0.7l-0.4,0l-0.4,0v0.2V19l0.4,0l0.4,0v1.8v1.8h0.3h0.3v-1.8V19h0.4c0.4,0,0.4,0,0.4-0.1
		c0-0.1,0.3,0.6,0.7,1.8l0.7,1.9h0.2h0.2l0.2-0.5c0.1-0.3,0.3-1,0.5-1.5l0.3-1l0.1,0.3c0.1,0.2,0.3,0.9,0.5,1.5l0.4,1.2h0.2h0.2
		l0.7-2.1l0.7-2.1h-0.3h-0.3L81,20.1l-0.5,1.5l-0.4-1.2c-0.2-0.6-0.4-1.3-0.5-1.5l-0.1-0.4l-0.2,0l-0.2,0l-0.5,1.5
		c-0.4,1.3-0.5,1.5-0.5,1.4c0-0.1-0.3-0.8-0.5-1.5c-0.2-0.7-0.5-1.4-0.5-1.4c0,0-0.3,0-0.7,0l-0.6,0v-0.7v-0.7h-0.3h-0.3V17.8z"/>
	<path class="st0" d="M71.4,18.3c-0.6,0.1-1.1,0.5-1.4,1.1c-0.2,0.4-0.2,0.4-0.2,1c0,0.6,0,0.6,0.2,1c0.2,0.4,0.6,0.9,1.1,1.1
		c0.3,0.1,0.4,0.2,0.9,0.2c0.6,0,0.6,0,0.9-0.1c0.2-0.1,0.4-0.2,0.5-0.3c0.2-0.2,0.6-0.8,0.6-0.9c0,0-0.1-0.1-0.3-0.1
		c-0.3,0-0.3,0-0.5,0.2c-0.2,0.3-0.5,0.5-0.9,0.6c-0.5,0.1-1.1,0-1.5-0.3c-0.2-0.2-0.4-0.6-0.5-0.9l0-0.2h1.9h1.9v-0.2
		c0-0.1,0-0.4-0.1-0.5c-0.2-0.9-0.9-1.5-1.7-1.6C71.9,18.2,71.8,18.2,71.4,18.3z M72.6,18.9c0.4,0.2,0.8,0.6,0.9,1.1l0,0.1h-1.6
		h-1.6l0-0.1c0.1-0.3,0.3-0.6,0.5-0.8c0.3-0.3,0.6-0.4,1.1-0.4C72.2,18.8,72.4,18.8,72.6,18.9z"/>
	<path class="st0" d="M83.7,18.5c-0.4,0.2-0.8,0.6-1,1c-0.1,0.3-0.2,0.4-0.2,1c0,0.6,0,0.7,0.1,1c0.2,0.4,0.6,0.8,1,1.1
		c0.3,0.2,0.4,0.2,0.9,0.2c0.8,0,1.2-0.2,1.6-0.5c0.2-0.2,0.4-0.4,0.5-0.7c0.2-0.4,0.2-0.4,0.2-1c0-0.6,0-0.6-0.2-1
		c-0.2-0.3-0.6-0.7-0.8-0.9c-0.4-0.2-0.5-0.3-1.1-0.3C84.1,18.3,84.1,18.3,83.7,18.5z M85.2,18.9c0.3,0.1,0.7,0.4,0.9,0.8
		c0.2,0.4,0.3,1,0.1,1.5c-0.2,0.6-0.8,1-1.5,1c-0.6,0-1.3-0.5-1.5-1.1c-0.1-0.3-0.1-1.1,0.1-1.4C83.6,18.9,84.3,18.7,85.2,18.9z"/>
	<path class="st0" d="M89.1,18.4c-0.2,0-0.5,0.2-0.6,0.3l-0.1,0.1l0-0.2v-0.2H88h-0.3v2.1v2.1h0.3h0.3v-1.5c0-1.6,0-1.7,0.3-2
		c0.1-0.1,0.3-0.1,0.4-0.2l0.2-0.1v-0.3c0-0.2,0-0.3,0-0.3C89.2,18.4,89.1,18.4,89.1,18.4z"/>
	<path class="st0" d="M73.5,25.2c-0.7,0.3-1.2,1.1-1,1.9c0.1,0.6,0.5,0.9,1.4,1.3c0.9,0.3,1.2,0.7,1.1,1.2c-0.1,0.3-0.2,0.4-0.4,0.6
		c-0.2,0.2-0.7,0.2-0.9,0c-0.2-0.2-0.4-0.4-0.4-0.7l0-0.3h-0.4h-0.4l0,0.4c0.1,0.7,0.4,1.3,1,1.5c0.4,0.2,1,0.1,1.4-0.1
		c0.3-0.2,0.6-0.5,0.8-0.8c0.2-0.4,0.2-1.3,0.1-1.6c-0.2-0.5-0.5-0.7-1.4-1c-0.7-0.3-0.8-0.3-0.9-0.6c-0.3-0.7,0.5-1.4,1.1-0.9
		c0.1,0.1,0.3,0.5,0.3,0.7v0.1h0.4h0.4v-0.2c0-0.1,0-0.3-0.1-0.5c-0.2-0.7-0.6-1-1.4-1C73.9,25.1,73.7,25.1,73.5,25.2z"/>
	<polygon class="st0" points="83.4,26 83.4,26.7 82.9,26.7 82.5,26.7 82.5,27 82.5,27.2 82.9,27.2 83.4,27.2 83.4,29.1 83.4,30.9 
		83.7,30.9 84,30.9 84,29.1 84,27.2 84.4,27.2 84.8,27.2 84.8,27 84.8,26.7 84.4,26.7 84,26.7 84,26 84,25.3 83.7,25.3 83.4,25.3 	
		"/>
	<path class="st0" d="M80.6,26.6c-0.5,0.2-0.7,0.6-0.7,1.1c0,0.6,0.2,0.8,0.9,1.1c0.8,0.3,1,0.5,1,0.9c0,0.2,0,0.3-0.2,0.4
		c-0.1,0.2-0.2,0.2-0.4,0.2c-0.4,0-0.7-0.2-0.8-0.7l0-0.2h-0.3h-0.3l0,0.3c0,0.4,0.3,0.8,0.5,1c0.5,0.4,1.3,0.4,1.8,0
		c0.3-0.2,0.4-0.5,0.4-1c0-0.7-0.2-1-1.1-1.3c-0.4-0.1-0.7-0.4-0.7-0.6c-0.1-0.4,0.2-0.7,0.6-0.7c0.2,0,0.3,0,0.4,0.2
		c0.1,0.1,0.2,0.2,0.2,0.3c0,0.1,0,0.1,0.3,0.1h0.3l0-0.2c0-0.3-0.2-0.6-0.5-0.8c-0.2-0.1-0.3-0.2-0.7-0.2
		C80.9,26.6,80.7,26.6,80.6,26.6z"/>
	<path class="st0" d="M86.3,26.7c-0.8,0.3-1.3,0.9-1.4,1.8c-0.1,1.1,0.4,2,1.3,2.4c0.3,0.2,0.4,0.2,0.9,0.2s0.6,0,0.9-0.2
		c0.4-0.2,0.8-0.5,1-0.9c0.1-0.2,0.2-0.3,0.2-0.3c0,0-0.2,0-0.3,0s-0.3,0-0.3,0c0,0.1-0.5,0.6-0.7,0.7c-0.3,0.2-1.1,0.2-1.4,0
		c-0.4-0.2-0.8-0.7-0.8-1.1l0-0.2h1.9h1.9l0-0.4c0-0.5-0.2-0.9-0.5-1.3c-0.3-0.3-0.5-0.5-0.8-0.6C87.6,26.5,86.7,26.5,86.3,26.7z
		 M87.7,27.2c0.3,0.1,0.6,0.5,0.8,0.9c0.1,0.2,0.1,0.3,0.1,0.3c0,0-0.7,0-1.6,0h-1.6l0.1-0.2c0.1-0.5,0.6-1,1-1.1
		C86.9,27.1,87.4,27.1,87.7,27.2z"/>
	<path class="st0" d="M91.2,26.6c-0.1,0-0.4,0.1-0.5,0.2L90.4,27v-0.2v-0.2h-0.3h-0.3v2.1v2.1h0.3h0.3l0-1.5c0-1.4,0-1.5,0.2-1.7
		c0.3-0.6,1.4-0.8,1.9-0.3c0.3,0.3,0.3,0.6,0.3,2.1v1.4h0.3h0.3l0-1.5c0-1.4,0-1.5,0.1-1.7c0.2-0.4,0.6-0.6,1.1-0.6
		c0.3,0,0.7,0.1,0.8,0.3c0.2,0.3,0.3,0.6,0.3,2.1v1.4h0.3h0.3l0-1.5c0-1.6-0.1-1.8-0.4-2.3c-0.5-0.8-2-0.8-2.7,0l-0.1,0.1L93,27
		C92.6,26.6,91.8,26.5,91.2,26.6z"/>
	<path class="st0" d="M97.8,26.6c-0.3,0.1-0.5,0.4-0.6,0.6c-0.1,0.2-0.1,0.3-0.1,0.6c0,0.5,0.2,0.7,0.6,0.9c1.2,0.5,1.2,0.6,1.2,1
		c0,0.2,0,0.3-0.2,0.4c-0.2,0.2-0.2,0.2-0.5,0.2c-0.3,0-0.3,0-0.5-0.1c-0.2-0.2-0.3-0.4-0.3-0.6c0-0.1,0-0.1-0.3-0.1h-0.3l0,0.3
		c0.1,0.9,0.9,1.4,1.8,1.2c0.6-0.2,0.9-0.6,0.9-1.2c0-0.7-0.3-1-1-1.3c-0.2-0.1-0.4-0.1-0.5-0.2c-0.3-0.2-0.5-0.5-0.3-0.8
		c0.1-0.2,0.3-0.4,0.6-0.4c0.2,0,0.3,0,0.4,0.2c0.1,0.1,0.2,0.2,0.2,0.3c0,0.1,0,0.1,0.3,0.1h0.3l0-0.2c-0.1-0.3-0.2-0.6-0.5-0.8
		c-0.2-0.1-0.3-0.1-0.6-0.2C98.1,26.6,97.9,26.6,97.8,26.6z"/>
	<path class="st0" d="M75.8,26.7c0,0,0.4,1,0.8,2.1l0.8,2.1l-0.3,0.7c-0.1,0.4-0.3,0.7-0.3,0.7c0,0.1,0.6,0,0.7,0
		c0,0,0.5-1.3,1.1-2.7c0.6-1.5,1.1-2.7,1.1-2.7c0,0-0.1,0-0.3,0H79l-0.7,1.7L77.7,30l-0.6-1.7l-0.6-1.7h-0.3
		C75.9,26.7,75.8,26.7,75.8,26.7z"/>
	<path class="st0" d="M84.4,35.5c0,1.6,0,3.1,0,3.2l0,0.3h0.3c0.2,0,0.3,0,0.3,0.1c0,0.1,0,0.1,0,0c0,0,0.1-0.1,0.3-0.1
		c0.1,0,0.6,0,1.2,0l1,0v-0.5V38h-1.1h-1.1l0-2.8l0-2.8l-0.4,0l-0.4,0L84.4,35.5z"/>
	<path class="st0" d="M77.8,37.2c-0.3,0.1-0.7,0.4-0.8,0.7l-0.1,0.3l0,7.8c0,4.3,0,8,0,8.2c0,0.4,0.3,0.8,0.6,1.1l0.3,0.2l1.7,0
		l1.7,0l0.3-0.2c0.4-0.2,0.6-0.5,0.7-0.9c0-0.2,0.1-2.7,0.1-8.1c0-8.9,0-8.2-0.4-8.7c-0.4-0.4-0.5-0.4-2.3-0.4
		C78.4,37.1,78,37.2,77.8,37.2z"/>
	<path class="st0" d="M91,37.7c-0.2,0.1-0.4,0.1-0.5,0.2C90.4,38,90.3,38,90.3,38c-0.1,0-0.7,0.7-0.8,0.9c-0.3,0.7-0.3,1.6,0.1,2.3
		c0.1,0.2,0.6,0.8,0.8,0.9c0,0,0.1,0.1,0.2,0.1c0,0,0.2,0.1,0.2,0.1c0.1,0,0.2,0,0.2,0c0.2,0.1,1.3,0,1.7-0.2
		c0.1-0.1,0.3-0.1,0.3-0.1c0,0,0,0,0,0c0,0,0-0.1,0.1-0.1c0.1-0.1,0.1,0,0.1,0.1v0.2h0.4h0.4v-2.3v-2.3h-0.4h-0.4v0.2v0.2L93,38
		c-0.3-0.2-0.4-0.2-0.8-0.3C91.8,37.6,91.5,37.6,91,37.7z M92.2,38.6c0.3,0.1,0.6,0.5,0.8,0.8c0.1,0.2,0.1,0.3,0.1,0.7
		c0,0.5-0.2,0.9-0.6,1.3c-0.7,0.6-1.7,0.4-2.3-0.4c-0.2-0.3-0.2-0.9-0.1-1.3C90.5,38.7,91.4,38.2,92.2,38.6z"/>
	<path class="st0" d="M95.9,41.9c0,2,0,3.6,0,3.6c0,0,0.2,0,0.4,0l0.3,0v-0.3l0-0.3l0.1,0.2c0.4,0.5,0.8,0.7,1.4,0.6
		c0.4,0,0.7-0.1,0.9-0.3c0.3-0.2,0.5-0.5,0.5-0.6c0,0,0.1-0.1,0.1-0.2c0.1-0.1,0.1-0.3,0.2-0.4c0-0.1,0.1-0.3,0.1-0.4
		c0.1-0.3,0.1-1.3,0-1.6c0-0.1-0.1-0.3-0.1-0.4c0-0.1-0.1-0.3-0.2-0.4c-0.1-0.1-0.2-0.3-0.2-0.3c0-0.1-0.4-0.4-0.6-0.5
		c-0.3-0.1-0.4-0.1-0.8-0.1c-0.4,0-0.5,0-0.8,0.2c-0.2,0.1-0.4,0.3-0.5,0.4l-0.1,0.2v-1.4v-1.4h-0.4h-0.4V41.9z M98.4,41.4
		c0.1,0,0.2,0.2,0.3,0.3c0.3,0.4,0.5,1.2,0.4,1.9c0,0.2-0.1,0.4-0.1,0.4c0,0.3-0.4,0.7-0.7,0.9c-0.2,0.1-0.6,0.1-0.8,0
		c-0.5-0.2-0.7-0.7-0.8-1.5c-0.1-1.1,0.3-1.9,1-2C98.2,41.3,98.3,41.3,98.4,41.4z"/>
	<path class="st0" d="M71.7,39.3c-1,0.2-1.8,1.4-2.2,3.1c-0.1,0.7-0.2,2.3-0.1,3c0.2,1.9,0.9,2.9,2.7,3.8c0.7,0.3,1,0.7,1.2,1.1
		c0.2,0.7,0,1.6-0.3,2c-0.2,0.3-0.5,0.4-0.8,0.4c-0.7,0-1.2-0.6-1.5-1.8c0-0.2-0.1-0.4-0.1-0.4c0,0-1.5,0.6-1.6,0.7
		c0,0,0.1,0.8,0.2,1.4c0.5,2,1.7,3.2,3.2,2.9c0.9-0.1,1.5-0.6,2.1-1.7c0.4-0.9,0.7-1.9,0.7-3.2c0.1-1.5-0.2-2.6-0.7-3.7
		c-0.1-0.3-0.3-0.5-0.6-0.8c-0.4-0.4-0.5-0.4-1.3-0.9c-1.3-0.7-1.5-0.9-1.5-1.9c0-0.6,0.1-0.9,0.4-1.2c0.4-0.3,0.9-0.3,1.3-0.1
		c0.3,0.2,0.5,0.7,0.6,1.2c0.1,0.2,0.1,0.4,0.1,0.4c0,0,1.4-0.9,1.5-1c0,0,0-0.3-0.1-0.5c-0.4-1.7-1.1-2.7-2-3
		C72.5,39.3,72,39.3,71.7,39.3z"/>
	<polygon class="st0" points="55.6,47.5 55.6,55.5 58.4,55.5 61.1,55.5 61.1,53.9 61.1,52.3 59.3,52.3 57.4,52.3 57.4,50.6 
		57.4,48.8 58.9,48.8 60.3,48.8 60.3,47.3 60.3,45.8 58.9,45.8 57.4,45.8 57.4,44.2 57.4,42.6 59.3,42.6 61.1,42.6 61.1,41.1 
		61.1,39.5 58.4,39.5 55.6,39.5 	"/>
	<path class="st0" d="M62.2,47.5v8h0.7h0.7l0-5.3c0-2.9,0-5.3,0-5.3c0,0,0.7,2.4,1.5,5.3c0.8,2.9,1.5,5.3,1.5,5.3
		c0,0.1,0.1,0.1,0.8,0.1h0.8v-8v-8h-0.7h-0.7l0,4.7c0,2.6,0,4.6,0,4.6c0,0-0.6-2.1-1.3-4.6c-0.7-2.5-1.3-4.6-1.3-4.6
		c0-0.1-0.1-0.1-1-0.1h-1V47.5z"/>
	<path class="st0" d="M83.7,40.7c-0.3,0.1-0.5,0.4-0.7,0.7c-0.1,0.2-0.1,0.3-0.1,6.6c0,4.7,0,6.4,0.1,6.6c0.1,0.3,0.4,0.7,0.7,0.8
		c0.2,0.1,0.4,0.1,1.9,0.1c1.3,0,1.7,0,1.9-0.1c0.2-0.1,0.6-0.4,0.7-0.6l0.1-0.2l0-6.4c0-4.2,0-6.5,0-6.6c-0.1-0.3-0.3-0.6-0.6-0.8
		l-0.3-0.1l-1.7,0C84,40.6,84,40.6,83.7,40.7z"/>
	<path class="st0" d="M89.8,44.1c-0.3,0.1-0.6,0.5-0.7,0.8c-0.1,0.3-0.1,9.4,0,9.7c0.1,0.3,0.4,0.7,0.7,0.8c0.2,0.1,0.4,0.1,1.9,0.1
		c1.3,0,1.7,0,1.9-0.1c0.3-0.1,0.6-0.4,0.7-0.7l0.1-0.3v-4.7V45l-0.1-0.3c-0.1-0.3-0.4-0.6-0.7-0.7C93.4,44,93,44,91.7,44
		C90.2,44,90,44,89.8,44.1z"/>
	<path class="st0" d="M96,47.4c-0.3,0.1-0.7,0.4-0.8,0.7L95,48.3l0,2.8c0,1.9,0,2.9,0,3.1c0.1,0.4,0.3,0.8,0.7,0.9l0.3,0.1h1.7
		c1.7,0,1.7,0,1.9-0.1c0.3-0.1,0.5-0.4,0.7-0.7c0.1-0.2,0.1-0.6,0.1-3.2c0-2.4,0-3-0.1-3.2c-0.1-0.3-0.4-0.6-0.7-0.7
		c-0.2-0.1-0.3-0.1-1.8-0.1C96.6,47.3,96.2,47.3,96,47.4z"/>
</g>
</svg>
